<svg id="Layer_1" data-name="Layer 1" xmlns="http://www.w3.org/2000/svg" viewBox="0 0 211.32 271.76"><defs><style>.cls-1{fill:#13ec6a;}.cls-2{opacity:0.77;}.cls-3{fill:#231f20;}</style></defs><path class="cls-1" d="M172.29,354.37l1.36-2.13L185.94,364s1.26.77,1.46,0-12.69-12.4-12.69-12.4l5.81-2.51,4.26,5.61s2.58,1.86,2.62-.68l-5.33-5.52L192.53,346,202,359.41s2.94,2.17,3-1.84c0-2.33-9.2-12.11-9.2-12.11l16.08-2.61,3.58,6.68a1.77,1.77,0,0,0,2.15.79,2.5,2.5,0,0,0,1.56-3.5L216.84,342l20.43-2.23,3.58,14.82s3.68,2.13,4.85-.49L242,339l22.56-2.32v7.46s4.75,2.42,5.62-.68v-7.55l20.3-2.36-2.19,14.14s-.33,5.28,4.19,1.25l3.3-16.23,18.4-2.07-1.88,7.23s-.51,2.22,2.28,1.12a4.71,4.71,0,0,0,2.5-3.6l1.16-5.72,13.62-1.8-6.45,14.59s-.3,3,2.77.84L334.85,327l8.51-1.92-2.76,7.41a1.08,1.08,0,0,0,1.31-.49l3.19-7.89,2.33-.92s-7.22,17.3-13.41,24.53c0,0-22.34,29.83-51,35.77,0,0-4.26,1.23-8.71-2.78,0,0-5.23-3.42-10.72-2.39,0,0-7.43.78-10.52,3.49,0,0-4.14,5.68-17.82,3.62,0,0-19.63-2.2-41.58-15.11C193.66,370.32,177.65,360.25,172.29,354.37Z" transform="translate(-144.34 -114.12)"/><g class="cls-2"><path class="cls-3" d="M240.47,335.58l45.9-5.42s56-7.55,57.52-9.49,1.26-8.62-22.95-13.94-60.52-7.17-73.89-9.69c0,0-30.79-3.1-39.51-9.1,0,0-47.26,8.13-55,18.59s16.08,16.66,16.08,16.66Z" transform="translate(-144.34 -114.12)"/></g><path class="cls-1" d="M147.63,306.52l1.74-2.32-2.32-13.65a10.82,10.82,0,0,1,.11-4.39c.25-1.07.58-1.81.89-.49.61,2.65,2.42,17.17,2.42,17.17l6.78-4.13-1.49-8.2s1.16-3.68,2.78-.77,1.16,7.75,1.16,7.75l12.59-4.78s-2.71-14.08-2.71-16-.52-6,1.35-5.94c0,0,1.88-1.42,2.46,3.74s2.45,17.17,2.45,17.17l19.63-4.9-.65-7.68s-.19-3.56,2.45-3.49,2.59,2.07,2.59,2.07l.84,7.55,23.5-4.17-2.62-17s-1.06-5.52,2.62-6.1,3.77,4.94,3.77,4.94l2.33,17.24,28.18-3.68-1-7.85s-.82-3.1,2.35-3.58,3.75,2,3.75,2l1.16,8.52L289,272.82l-1.74-19.07s-.58-4.17,1.74-4.46,3,.87,3,.87a6.83,6.83,0,0,1,.77,2.42c0,1,1.65,19.57,1.65,19.57l22.17-2.56-.77-8.78s.52-2.71,2.45-2.45,2.33,1.29,2.33,1.29l.64,8.78,15.63-.64-1-18.55s-.58-4.4,1-4.11c0,0,1.32-.44,1.66,1.45S340,267.16,340,267.16l10.31-.68-.24-7.94s-.29-2.23.73-2.23,1,1.12,1,1.12v8.9l3.87-.34s-1.43-29.38-7.52-42a7.15,7.15,0,0,0-5.66-3.93c-23.29-2.6-143.54.21-187.82,32.59,0,0-10,5-10.26,16.85S144.85,298.52,147.63,306.52Z" transform="translate(-144.34 -114.12)"/><g class="cls-2"><path class="cls-3" d="M268.36,219.35s-70.31,9.51-82.51,15.33c0,0-21.5-5.82-26.73-21.31a52,52,0,0,1,31.57-20.72s6.05,8.27,23.05,14.72C213.74,207.37,232.33,215.84,268.36,219.35Z" transform="translate(-144.34 -114.12)"/></g><path class="cls-1" d="M161.77,204.65l16-10.58L184.49,183s1.16-2.1,2.13-1.81,0,1.65,0,1.65l-5.81,9.85,14.85-5.49,2.65-5.17a2.2,2.2,0,0,1,1.93-1.48c1.49-.07.84,1.42.84,1.42l-1.35,4,18.33-4.39s1.07-10.13,3.43-10.81,2,1.06,2,1.06l-1.23,8.75,20.87-2.66v-4.51s.05-1.3,1.89-1.3,2.23.53,2.23.53a1.12,1.12,0,0,1,.43,1v3.72l20-1.54-4.5-8s-.68-1.3.67-1.69,2.33,1.31,2.33,1.31l5,7.89,16.49,0-2.74-4s-.78-.9,0-1.26a1.65,1.65,0,0,1,1.32-.09l4.36,5.29,11.33-.07-9.1-6.77s-1-.91-.2-1.1,11.82,8.26,11.82,8.26l9.68,1.87s-30.28-24.34-80.44-15.62c0,0-23.26,1.44-48,17a53.08,53.08,0,0,0-12.1,10.47C169.4,194.24,163.67,201.17,161.77,204.65Z" transform="translate(-144.34 -114.12)"/><path class="cls-1" d="M227.88,156.81s19.37,3.1,40.48-14.13,19.95-28.48,19.95-28.48a81.11,81.11,0,0,0-19.41,1.54A52.43,52.43,0,0,0,228,156.25C228,156.44,227.92,156.63,227.88,156.81Z" transform="translate(-144.34 -114.12)"/></svg>