<svg id="Layer_1" data-name="Layer 1" xmlns="http://www.w3.org/2000/svg" viewBox="0 0 370.54 140.64"><defs><style>.cls-1{fill:#13ec6a;}.cls-2{fill:#fff;}</style></defs><path class="cls-1" d="M158,268.87l.7-1.11,6.37,6.07s.65.4.75,0-6.57-6.42-6.57-6.42l3-1.3,2.2,2.91s1.34,1,1.36-.35L163,265.81l5.41-1.25,4.92,6.91s1.52,1.13,1.55-1c0-1.2-4.76-6.26-4.76-6.26l8.32-1.36,1.85,3.46a.93.93,0,0,0,1.12.41,1.29,1.29,0,0,0,.8-1.81L181,262.45l10.58-1.15,1.85,7.67s1.91,1.1,2.51-.25l-1.9-7.82,11.67-1.2v3.85s2.46,1.26,2.91-.35v-3.91l10.51-1.21L218,265.39s-.16,2.74,2.17.65l1.71-8.4,9.52-1.07-1,3.74s-.27,1.15,1.18.58A2.42,2.42,0,0,0,232.9,259l.61-3,7.05-.94-3.34,7.56s-.16,1.55,1.43.43l3.44-8.42,4.41-1-1.43,3.83a.54.54,0,0,0,.67-.25l1.66-4.08,1.2-.48s-3.73,9-6.94,12.7c0,0-11.56,15.43-26.4,18.51a5.05,5.05,0,0,1-4.51-1.44,8.55,8.55,0,0,0-5.54-1.24s-3.85.4-5.45,1.81c0,0-2.14,2.94-9.22,1.87A60.38,60.38,0,0,1,169,277.12S160.73,271.91,158,268.87Z" transform="translate(-143.49 -144.53)"/><path class="cls-2" d="M193.24,259.14l23.76-2.8s29-3.91,29.77-4.91.65-4.46-11.88-7.22-31.32-3.71-38.24-5c0,0-15.94-1.61-20.45-4.71,0,0-24.46,4.21-28.46,9.62s8.32,8.62,8.32,8.62Z" transform="translate(-143.49 -144.53)"/><path class="cls-1" d="M145.2,244.1l.9-1.2-1.2-7.06a5.78,5.78,0,0,1,0-2.27c.13-.56.3-.94.46-.26.32,1.37,1.26,8.89,1.26,8.89l3.5-2.14-.76-4.24s.6-1.91,1.43-.4a8.34,8.34,0,0,1,.6,4L158,237s-1.4-7.28-1.4-8.28-.27-3.11.7-3.08c0,0,1-.73,1.27,1.94s1.27,8.89,1.27,8.89L170,233.88l-.33-4s-.1-1.83,1.27-1.8,1.34,1.07,1.34,1.07l.43,3.91,12.16-2.16-1.35-8.82s-.55-2.85,1.35-3.16,2,2.56,2,2.56l1.2,8.92,14.59-1.9-.51-4.06a1.44,1.44,0,0,1,1.22-1.86,1.56,1.56,0,0,1,1.94,1.06l.6,4.41,12.53-1.41-.9-9.87s-.3-2.16.9-2.31,1.56.45,1.56.45a3.6,3.6,0,0,1,.4,1.26c0,.5.85,10.12.85,10.12L232.64,225l-.4-4.54s.26-1.41,1.27-1.27,1.2.67,1.2.67l.33,4.54,8.09-.33-.54-9.6s-.3-2.28.54-2.13c0,0,.68-.23.86.75s.75,10.65.75,10.65l5.34-.35-.13-4.11s-.15-1.15.38-1.15.53.57.53.57v4.61l2-.17s-.74-15.21-3.89-21.72a3.69,3.69,0,0,0-2.93-2c-12.06-1.34-74.29.11-97.2,16.87a10.41,10.41,0,0,0-5.31,8.72C143.37,231.07,143.76,240,145.2,244.1Z" transform="translate(-143.49 -144.53)"/><path class="cls-2" d="M207.68,199s-36.39,4.92-42.7,7.93c0,0-11.13-3-13.84-11a27,27,0,0,1,16.34-10.72s3.13,4.28,11.93,7.62C179.41,192.79,189,197.17,207.68,199Z" transform="translate(-143.49 -144.53)"/><path class="cls-1" d="M152.51,191.38l8.29-5.48,3.47-5.74s.61-1.09,1.11-.94,0,.85,0,.85l-3,5.1,7.69-2.84,1.37-2.68a1.13,1.13,0,0,1,1-.76c.77,0,.43.73.43.73l-.7,2.07,9.49-2.27s.55-5.24,1.77-5.6,1,.56,1,.56l-.64,4.52,10.8-1.38v-2.33s0-.67,1-.67,1.15.27,1.15.27a.59.59,0,0,1,.23.53v1.93l10.35-.8L205,172.34s-.35-.68.35-.88,1.2.68,1.2.68l2.58,4.08h8.54l-1.42-2.07s-.4-.47,0-.65a.86.86,0,0,1,.68-.05l2.26,2.74,5.86,0-4.71-3.51s-.5-.47-.1-.57,6.12,4.28,6.12,4.28l5,1s-15.67-12.6-41.63-8.09A58.49,58.49,0,0,0,164.88,178a27.7,27.7,0,0,0-6.26,5.42A68.86,68.86,0,0,0,152.51,191.38Z" transform="translate(-143.49 -144.53)"/><path class="cls-1" d="M186.73,166.62s10,1.61,21-7.31S218,144.57,218,144.57a41.86,41.86,0,0,0-10,.79,27.14,27.14,0,0,0-21.17,21Z" transform="translate(-143.49 -144.53)"/><path class="cls-2" d="M302,239.56v3.09h-.93v-3.09l-3.57-5.83h1l3,5,3.06-5h.94Z" transform="translate(-143.49 -144.53)"/><path class="cls-2" d="M307.47,239.3a3.41,3.41,0,1,1,3.41,3.41A3.3,3.3,0,0,1,307.47,239.3Zm5.9,0a2.49,2.49,0,1,0-2.49,2.61A2.45,2.45,0,0,0,313.37,239.3Z" transform="translate(-143.49 -144.53)"/><path class="cls-2" d="M324.21,236v6.7h-.86v-1.23a2.66,2.66,0,0,1-2.41,1.29,2.6,2.6,0,0,1-2.83-2.88V236H319v3.79c0,1.43.73,2.15,2,2.15a2.18,2.18,0,0,0,2.28-2.43V236Z" transform="translate(-143.49 -144.53)"/><path class="cls-2" d="M332.17,235.89v.88H332a2.16,2.16,0,0,0-2.25,2.47v3.42h-.91V236h.87v1.31A2.53,2.53,0,0,1,332.17,235.89Z" transform="translate(-143.49 -144.53)"/><path class="cls-2" d="M348.11,239.3a3.25,3.25,0,0,1-3.34,3.41,2.87,2.87,0,0,1-2.58-1.39v1.33h-.87v-9.46h.9v4a2.94,2.94,0,0,1,2.55-1.33A3.25,3.25,0,0,1,348.11,239.3Zm-.9,0a2.5,2.5,0,1,0-2.5,2.61A2.47,2.47,0,0,0,347.21,239.3Z" transform="translate(-143.49 -144.53)"/><path class="cls-2" d="M351.33,239.3a3.41,3.41,0,1,1,3.41,3.41A3.3,3.3,0,0,1,351.33,239.3Zm5.89,0a2.49,2.49,0,1,0-2.48,2.61A2.44,2.44,0,0,0,357.22,239.3Z" transform="translate(-143.49 -144.53)"/><path class="cls-2" d="M368.15,233.19v9.46h-.87v-1.33a2.9,2.9,0,0,1-2.59,1.39,3.41,3.41,0,0,1,0-6.82,2.93,2.93,0,0,1,2.55,1.33v-4Zm-.9,6.11a2.49,2.49,0,1,0-2.48,2.61A2.46,2.46,0,0,0,367.25,239.3Z" transform="translate(-143.49 -144.53)"/><path class="cls-2" d="M378.34,236l-3.35,7.5c-.56,1.31-1.27,1.73-2.23,1.73a2.29,2.29,0,0,1-1.63-.61l.42-.67a1.67,1.67,0,0,0,1.23.5c.6,0,1-.28,1.39-1.12l.29-.65-3-6.68h1l2.52,5.69,2.52-5.69Z" transform="translate(-143.49 -144.53)"/><path class="cls-2" d="M382,242a2.2,2.2,0,0,1-.17.74l-.54,1.76h-.61l.43-1.85a.65.65,0,0,1-.46-.65.68.68,0,1,1,1.35,0Z" transform="translate(-143.49 -144.53)"/><path class="cls-2" d="M390.67,239.3a3.41,3.41,0,1,1,3.41,3.41A3.3,3.3,0,0,1,390.67,239.3Zm5.9,0a2.49,2.49,0,1,0-2.49,2.61A2.45,2.45,0,0,0,396.57,239.3Z" transform="translate(-143.49 -144.53)"/><path class="cls-2" d="M407.42,236v6.7h-.87v-1.23a2.66,2.66,0,0,1-2.41,1.29,2.6,2.6,0,0,1-2.83-2.88V236h.91v3.79a1.87,1.87,0,0,0,2,2.15,2.18,2.18,0,0,0,2.28-2.43V236Z" transform="translate(-143.49 -144.53)"/><path class="cls-2" d="M415.37,235.89v.88h-.22a2.16,2.16,0,0,0-2.25,2.47v3.42H412V236h.87v1.31A2.53,2.53,0,0,1,415.37,235.89Z" transform="translate(-143.49 -144.53)"/><path class="cls-2" d="M423.59,241.88l.41-.71a4,4,0,0,0,2.38.75c1.27,0,1.8-.43,1.8-1.09,0-1.75-4.35-.37-4.35-3,0-1.09.95-1.91,2.65-1.91a4.55,4.55,0,0,1,2.37.63l-.39.72a3.51,3.51,0,0,0-2-.57c-1.21,0-1.74.47-1.74,1.11,0,1.81,4.34.45,4.34,3,0,1.16-1,1.91-2.76,1.91A4.5,4.5,0,0,1,423.59,241.88Z" transform="translate(-143.49 -144.53)"/><path class="cls-2" d="M432.12,239.3a3.3,3.3,0,0,1,3.45-3.41,2.92,2.92,0,0,1,2.62,1.33l-.67.46a2.27,2.27,0,0,0-1.95-1,2.62,2.62,0,0,0,0,5.23,2.28,2.28,0,0,0,1.95-1l.67.45a2.94,2.94,0,0,1-2.62,1.33A3.3,3.3,0,0,1,432.12,239.3Z" transform="translate(-143.49 -144.53)"/><path class="cls-2" d="M441.8,233.83a.66.66,0,0,1,.67-.64.65.65,0,1,1,0,1.29A.66.66,0,0,1,441.8,233.83ZM442,236h.9v6.7H442Z" transform="translate(-143.49 -144.53)"/><path class="cls-2" d="M453.31,239.58H447.7a2.49,2.49,0,0,0,2.64,2.33,2.65,2.65,0,0,0,2.05-.88l.51.58a3.28,3.28,0,0,1-2.58,1.1,3.32,3.32,0,0,1-3.52-3.41,3.23,3.23,0,0,1,3.27-3.41,3.19,3.19,0,0,1,3.25,3.41C453.32,239.37,453.31,239.47,453.31,239.58Zm-5.61-.68h4.76a2.39,2.39,0,0,0-4.76,0Z" transform="translate(-143.49 -144.53)"/><path class="cls-2" d="M463.38,238.76v3.89h-.91v-3.8a1.87,1.87,0,0,0-2-2.14,2.19,2.19,0,0,0-2.34,2.42v3.52h-.91V236h.87v1.23a2.83,2.83,0,0,1,2.55-1.29A2.57,2.57,0,0,1,463.38,238.76Z" transform="translate(-143.49 -144.53)"/><path class="cls-2" d="M467.23,239.3a3.3,3.3,0,0,1,3.45-3.41,2.94,2.94,0,0,1,2.63,1.33l-.68.46a2.27,2.27,0,0,0-1.95-1,2.62,2.62,0,0,0,0,5.23,2.28,2.28,0,0,0,1.95-1l.68.45a3,3,0,0,1-2.63,1.33A3.3,3.3,0,0,1,467.23,239.3Z" transform="translate(-143.49 -144.53)"/><path class="cls-2" d="M482.84,239.58h-5.6a2.48,2.48,0,0,0,2.63,2.33,2.64,2.64,0,0,0,2.05-.88l.51.58a3.27,3.27,0,0,1-2.58,1.1,3.32,3.32,0,0,1-3.52-3.41,3.24,3.24,0,0,1,3.28-3.41,3.19,3.19,0,0,1,3.24,3.41C482.85,239.37,482.84,239.47,482.84,239.58Zm-5.6-.68H482a2.38,2.38,0,0,0-4.75,0Z" transform="translate(-143.49 -144.53)"/><path class="cls-2" d="M302.91,198.85v24.83h-3.8l-13.69-16.82v16.82h-4.58V198.85h3.8l13.69,16.81V198.85Z" transform="translate(-143.49 -144.53)"/><path class="cls-2" d="M309.37,212.86v-14H314v13.83c0,5.11,2.31,7.31,6.32,7.31s6.28-2.2,6.28-7.31V198.85h4.54v14c0,7.24-4.08,11.17-10.86,11.17S309.37,220.1,309.37,212.86Z" transform="translate(-143.49 -144.53)"/><path class="cls-2" d="M342.16,202.75h-8.23v-3.9H355v3.9h-8.23v20.93h-4.61Z" transform="translate(-143.49 -144.53)"/><path class="cls-2" d="M374.73,223.68l-5.07-7.27c-.32,0-.64,0-1,0h-5.61v7.24h-4.61V198.85H368.7c6.53,0,10.57,3.33,10.57,8.83a7.94,7.94,0,0,1-5.29,7.84l5.72,8.16Zm-6.25-20.93h-5.39v9.9h5.39c4,0,6.14-1.85,6.14-5S372.53,202.75,368.48,202.75Z" transform="translate(-143.49 -144.53)"/><path class="cls-2" d="M384.42,198.85H389v24.83h-4.61Z" transform="translate(-143.49 -144.53)"/><path class="cls-2" d="M400.35,202.71v7.56h12v3.9h-12v9.51h-4.61V198.85h18.13v3.86Z" transform="translate(-143.49 -144.53)"/><path class="cls-2" d="M418.34,198.85H423v20.93h13v3.9h-17.6Z" transform="translate(-143.49 -144.53)"/><path class="cls-2" d="M437.36,211.26c0-7.34,5.68-12.77,13.37-12.77s13.38,5.39,13.38,12.77S458.43,224,450.73,224,437.36,218.61,437.36,211.26Zm22.1,0a8.73,8.73,0,1,0-8.73,8.73A8.46,8.46,0,0,0,459.46,211.26Z" transform="translate(-143.49 -144.53)"/><path class="cls-2" d="M504.52,198.85l-8.23,24.83H491.4l-6.14-18.38L479,223.68h-4.94l-8.23-24.83h4.79l6.18,18.87,6.42-18.87h4.25l6.28,19,6.35-19Z" transform="translate(-143.49 -144.53)"/><path class="cls-2" d="M514,202.38A3.45,3.45,0,1,1,510.6,199,3.37,3.37,0,0,1,514,202.38Zm-.57,0a2.81,2.81,0,0,0-2.87-2.89,2.91,2.91,0,1,0,2.87,2.89Zm-1.88.63.86,1.32h-.84l-.76-1.18H510v1.18h-.84v-3.85h1.61c1,0,1.62.52,1.62,1.34A1.21,1.21,0,0,1,511.59,203Zm-.89-.51c.54,0,.86-.25.86-.68s-.32-.68-.86-.68H510v1.36Z" transform="translate(-143.49 -144.53)"/></svg>