<svg id="Layer_1" data-name="Layer 1" xmlns="http://www.w3.org/2000/svg" viewBox="0 0 223.39 287.28"><defs><style>.cls-1{fill:#13ec6a;}.cls-2{fill:#fff;}</style></defs><path class="cls-1" d="M167.85,360.33l1.43-2.25,13,12.39s1.33.82,1.53,0-13.41-13.11-13.41-13.11l6.14-2.66,4.51,5.94s2.73,2,2.76-.72l-5.63-5.83,11.06-2.56,10,14.13s3.11,2.29,3.17-2c0-2.46-9.72-12.8-9.72-12.8l17-2.76,3.79,7.06a1.87,1.87,0,0,0,2.27.84,2.64,2.64,0,0,0,1.65-3.71l-2.49-5.11,21.6-2.36,3.79,15.67s3.89,2.25,5.12-.51l-3.89-16,23.85-2.46v7.88s5,2.56,5.94-.72v-8l21.46-2.49-2.32,14.94s-.34,5.59,4.44,1.33l3.48-17.16,19.45-2.18-2,7.64s-.54,2.34,2.4,1.18a5,5,0,0,0,2.65-3.8l1.23-6.05,14.4-1.91-6.82,15.43s-.32,3.16,2.93.88l7-17.19,9-2-2.91,7.84a1.14,1.14,0,0,0,1.38-.52l3.38-8.34,2.45-1s-7.62,18.29-14.18,25.93c0,0-23.61,31.53-53.91,37.81,0,0-4.51,1.3-9.22-2.93,0,0-5.52-3.62-11.33-2.53,0,0-7.84.82-11.12,3.69,0,0-4.37,6-18.84,3.82,0,0-20.74-2.32-43.95-16C190.44,377.19,173.52,366.54,167.85,360.33Z" transform="translate(-138.31 -106.36)"/><path class="cls-2" d="M239.92,340.47l48.53-5.73s59.17-8,60.81-10S350.59,315.6,325,310s-64-7.58-78.11-10.24c0,0-32.55-3.28-41.76-9.62,0,0-50,8.59-58.15,19.65s17,17.61,17,17.61Z" transform="translate(-138.31 -106.36)"/><path class="cls-1" d="M141.78,309.75l1.84-2.45-2.45-14.43a11.69,11.69,0,0,1,.11-4.64c.27-1.14.62-1.92.94-.52.65,2.8,2.56,18.15,2.56,18.15l7.17-4.37-1.57-8.66s1.23-3.89,2.93-.82,1.23,8.19,1.23,8.19l13.31-5.05S165,280.27,165,278.22s-.55-6.35,1.43-6.28c0,0,2-1.5,2.59,4s2.6,18.15,2.6,18.15l20.74-5.18-.68-8.12s-.2-3.76,2.59-3.69,2.73,2.19,2.73,2.19l.89,8,24.84-4.4-2.76-18s-1.13-5.83,2.76-6.45,4,5.22,4,5.22l2.45,18.22L259,277.91l-1-8.29s-.87-3.27,2.48-3.79,4,2.15,4,2.15l1.23,9,25.59-2.86L289.37,254s-.62-4.4,1.84-4.71,3.17.92,3.17.92a7.24,7.24,0,0,1,.82,2.56c0,1,1.74,20.68,1.74,20.68l23.45-2.7-.82-9.28s.54-2.86,2.59-2.59,2.46,1.36,2.46,1.36l.68,9.29,16.52-.69-1.1-19.6s-.61-4.66,1.1-4.35c0,0,1.4-.46,1.75,1.53s1.54,21.76,1.54,21.76l10.9-.72-.25-8.39s-.31-2.36.76-2.36,1.08,1.18,1.08,1.18v9.42l4.09-.37s-1.51-31.06-7.95-44.36a7.54,7.54,0,0,0-6-4.16c-24.62-2.74-151.74.22-198.54,34.45,0,0-10.54,5.33-10.85,17.82S138.85,301.29,141.78,309.75Z" transform="translate(-138.31 -106.36)"/><path class="cls-2" d="M269.41,217.6s-74.33,10.06-87.23,16.2c0,0-22.72-6.14-28.25-22.52a55,55,0,0,1,33.37-21.91s6.39,8.75,24.37,15.56C211.67,204.93,231.32,213.89,269.41,217.6Z" transform="translate(-138.31 -106.36)"/><path class="cls-1" d="M156.73,202.06l16.92-11.19,7.1-11.74s1.23-2.21,2.25-1.91,0,1.74,0,1.74l-6.14,10.41,15.7-5.8,2.8-5.46a2.32,2.32,0,0,1,2-1.57c1.57-.07.89,1.5.89,1.5l-1.43,4.23,19.38-4.64s1.13-10.71,3.62-11.43,2.11,1.13,2.11,1.13l-1.29,9.24,22.06-2.81V169s0-1.38,2-1.38,2.36.56,2.36.56a1.18,1.18,0,0,1,.46,1.07v3.95l21.14-1.64-4.76-8.4s-.72-1.38.71-1.79,2.46,1.38,2.46,1.38l5.27,8.35,17.44,0-2.9-4.23s-.82-1,0-1.33a1.72,1.72,0,0,1,1.4-.1l4.61,5.59,12-.07-9.62-7.16s-1-1-.2-1.16,12.49,8.73,12.49,8.73l10.23,2s-32-25.73-85-16.51c0,0-24.59,1.52-50.77,18a56.07,56.07,0,0,0-12.78,11.07C164.79,191.05,158.74,198.38,156.73,202.06Z" transform="translate(-138.31 -106.36)"/><path class="cls-1" d="M226.61,151.49s20.48,3.28,42.8-14.94,21.08-30.1,21.08-30.1A85.57,85.57,0,0,0,270,108.07a55.41,55.41,0,0,0-43.24,42.83C226.7,151.1,226.65,151.29,226.61,151.49Z" transform="translate(-138.31 -106.36)"/></svg>